<svg xmlns="http://www.w3.org/2000/svg" width="1200" height="800" viewBox="0 0 1200 800" role="img" aria-labelledby="title desc">
  <title id="title">Network analysis visualization</title>
  <desc id="desc">An abstract directed network with connected nodes and a compact matrix panel.</desc>
  <rect width="1200" height="800" fill="#f4f7fa"/>
  <rect x="72" y="72" width="1056" height="656" rx="20" fill="#fff" stroke="#d2dce5" stroke-width="3"/>
  <g stroke="#9bb1c4" stroke-width="3" opacity=".8">
    <path d="M184 244L344 160L506 250L670 168L838 260L1004 190"/>
    <path d="M184 244L278 470L506 250L594 548L838 260L934 488L1004 190"/>
    <path d="M278 470L438 640L594 548L734 652L934 488"/>
    <path d="M344 160L438 640M670 168L734 652M838 260L734 652"/>
  </g>
  <g fill="#123b63" stroke="#fff" stroke-width="8">
    <circle cx="184" cy="244" r="34"/><circle cx="344" cy="160" r="34"/>
    <circle cx="506" cy="250" r="42"/><circle cx="670" cy="168" r="34"/>
    <circle cx="838" cy="260" r="42"/><circle cx="1004" cy="190" r="34"/>
    <circle cx="278" cy="470" r="34"/><circle cx="594" cy="548" r="42"/>
    <circle cx="934" cy="488" r="34"/><circle cx="438" cy="640" r="30"/><circle cx="734" cy="652" r="30"/>
  </g>
  <g fill="#d2dce5">
    <rect x="126" y="106" width="150" height="12" rx="6"/><rect x="126" y="132" width="270" height="8" rx="4"/>
    <rect x="864" y="570" width="180" height="12" rx="6"/><rect x="864" y="598" width="130" height="8" rx="4"/>
  </g>
  <g transform="translate(856 628)" fill="#123b63" opacity=".85">
    <rect width="20" height="20" rx="3"/><rect x="30" width="20" height="20" rx="3" opacity=".7"/><rect x="60" width="20" height="20" rx="3" opacity=".42"/>
  </g>
</svg>
